<svg xmlns="http://www.w3.org/2000/svg" viewBox="0 0 814.13792 796.64331"><defs><style>.cls-1{fill:#8dbf86;}.cls-2{fill:#76827d;}.cls-3{fill:#d3e9df;}.cls-4{fill:#c3d7cd;}.cls-5{fill:#9ad3d2;}.cls-6{fill:#9bd3d3;stroke:#9bd3d3;stroke-miterlimit:10;stroke-width:9px;}</style></defs><g id="Calque_10" data-name="Calque 10"><path class="cls-1" d="M261.53162.50452a5.53629,5.53629,0,0,1-.34375.45581,89.06591,89.06591,0,0,0-89.087,41.73547,4.39846,4.39846,0,0,1-.69507-.12067A280.85565,280.85565,0,0,1,49.20929,173.7627c.01392.07373.02008.148.03082.22229l.00171-.00086A89.08549,89.08549,0,0,0,3.43768,278.17169c-.07177-.01581-.14557-.01849-.21661-.0379C29.63153,370.92657,115.02264,438.879,216.28607,438.879c122.33283,0,221.50318-99.17035,221.50318-221.50318C437.78925,110.54938,362.16394,21.39215,261.53162.50452Z" transform="translate(0 0)"/><path class="cls-1" d="M437.78925,579.26752c0-122.33283-99.17035-221.50318-221.50318-221.50318-101.26343,0-186.65454,67.9524-213.065,160.74518.071-.01941.14484-.02209.21661-.0379A89.08549,89.08549,0,0,0,49.24182,622.65918l-.00171-.00085c-.01074.07428-.0169.14856-.03082.22229A280.85558,280.85558,0,0,1,171.40576,754.06818a4.3996,4.3996,0,0,1,.69507-.12067,89.06591,89.06591,0,0,0,89.087,41.73547,5.53475,5.53475,0,0,1,.34375.45582C362.16394,775.25116,437.78925,686.09393,437.78925,579.26752Z" transform="translate(0 0)"/><path class="cls-1" d="M376.34867,217.37579c0,122.33283,99.17035,221.50318,221.50318,221.50318,101.26343,0,186.65454-67.9524,213.065-160.74518-.071.01941-.14484.02209-.21661.0379A89.08549,89.08549,0,0,0,764.8961,173.98413l.00171.00086c.01074-.07428.0169-.14856.03082-.22229A280.85565,280.85565,0,0,1,642.73216,42.57513a4.39846,4.39846,0,0,1-.69507.12067A89.06591,89.06591,0,0,0,552.95005.96033a5.53629,5.53629,0,0,1-.34375-.45581C451.974,21.39215,376.34867,110.54938,376.34867,217.37579Z" transform="translate(0 0)"/><path class="cls-1" d="M552.6063,796.1388a5.53475,5.53475,0,0,1,.34375-.45582,89.06591,89.06591,0,0,0,89.087-41.73547,4.3996,4.3996,0,0,1,.69507.12067A280.85558,280.85558,0,0,1,764.92863,622.88062c-.01392-.07373-.02008-.148-.03082-.22229l-.00171.00085a89.08549,89.08549,0,0,0,45.80414-104.18756c.07177.01581.14557.01849.21661.0379-26.41046-92.79278-111.80157-160.74518-213.065-160.74518-122.33283,0-221.50318,99.17035-221.50318,221.50318C376.34867,686.09393,451.974,775.25116,552.6063,796.1388Z" transform="translate(0 0)"/><ellipse class="cls-1" cx="406.72029" cy="404.48408" rx="157.52866" ry="148.58599"/></g><g id="Calque_3" data-name="Calque 3"><path class="cls-2" d="M311.10465,96.94154c-64.49017,8.22217-111.08173,65.71228-109.32538,131.61005,2.82387-1.99757,7.25542-1.84052,8.91864,2.29311,4.251,10.56453,11.72389,19.02027,19.31419,27.33109a5.37986,5.37986,0,0,1,1.4431,2.89168c.6099.19518,1.20936.39,1.78656.57911a4.88386,4.88386,0,0,1,3.58859,4.82082c.17931.02716.35995.04591.5387.07591,5.65684.951,6.27155,7.48944,2.66948,10.44087a67.75739,67.75739,0,0,1,8.295,13.82789,8.62057,8.62057,0,0,1,5.7576.48261c5.17567,2.24228,8.372,8.01494,11.055,12.66085,1.123,1.94445,2.31609,3.89129,3.527,5.84957a13.74742,13.74742,0,0,1,14.43461,1.37616,36.43579,36.43579,0,0,1,8.54157,9.06682,31.41275,31.41275,0,0,1,7.64149,7.19308c2.04387.91739,4.0805,1.943,6.039,3.05625a4.55417,4.55417,0,0,1,1.54169.03147,24.36325,24.36325,0,0,1,10.37384,5.273,6.29789,6.29789,0,0,1,3.78836-4.33417,9.01589,9.01589,0,0,1,8.87081-3.1329,18.91736,18.91736,0,0,1,10.627,6.25837,15.89726,15.89726,0,0,1,1.07791-5.20116c1.561-3.85558,5.92592-4.28423,9.07738-2.36594a16.04559,16.04559,0,0,1,3.416,2.8582,6.21676,6.21676,0,0,1,7.33851-2.56037c.00753-.23052.01508-.46086.02907-.68071.18481-2.916,2.87677-4.79294,5.609-5.00537a4.69725,4.69725,0,0,1,1.79669-2.96718c2.01736-1.553,5.54277-1.35058,7.01288.91418.52057.80193,1.02852,1.61285,1.53888,2.422a5.04763,5.04763,0,0,1,.94046.44536,6.16714,6.16714,0,0,1,2.32419-.837c1.52721-3.39952,5.83544-5.24626,8.69281-3.29836-.41683-3.19609-.62291-6.40693-.81464-9.42516-.27218-5.1265,4.99636-7.49242,8.57366-6.11364a6.38109,6.38109,0,0,1,6.96448-3.60513,5.09279,5.09279,0,0,1,1.95873-.649,4.53176,4.53176,0,0,1,4.60929,2.06905,6.21621,6.21621,0,0,1,2.06547-2.23258,5.582,5.582,0,0,1,4.83693-1.664c3.4284.385,6.85318,1.66249,10.18232,2.53582a6.26193,6.26193,0,0,1,3.35835,2.13673,132.61489,132.61489,0,0,0,21.24528-90.98451C443.25723,138.94619,380.01274,88.15611,311.10465,96.94154Z" transform="translate(0 0)"/></g><g id="Calque_2" data-name="Calque 2"><path class="cls-3" d="M552.876,197.97716c-61.37268,7.82471-104.61923,65.1964-96.59382,128.14327q.73117,5.735,1.98978,11.25855c2.60859-3.05439,8.62744-2.85078,10.26963,1.59508a6.05264,6.05264,0,0,1,2.76,2.6954c11.94321,23.289,25.05786,48.05367,44.88586,65.66988a67.2818,67.2818,0,0,0,14.00518,9.88141,52.4957,52.4957,0,0,1-6.72967-6.12256c-3.86771-4.21825.95724-9.63954,5.53544-9.47817a28.57581,28.57581,0,0,1,9.85084,2.37438,6.77754,6.77754,0,0,1,7.19488-2.30241c6.39793,2.30557,16.19881,6.41623,21.07827,12.777.06366.03045.12811.06086.1922.09126a11.08926,11.08926,0,0,1,.70866-5.42972c3.4-8.56726,12.03853-6.6462,17.29629-1.37775a6.05824,6.05824,0,0,1,7.234-2.13157,16.1409,16.1409,0,0,1,3.7966,2.34426c-.41935-4.77345,5.17961-9.63217,9.32722-5.54845.812.79951,1.64746,1.6432,2.46573,2.5272-.3583-4.3106,4.88195-7.42023,8.57393-5.52428a6.07,6.07,0,0,1,8.03869-5.301,5.29731,5.29731,0,0,1,6.9817.04608c3.15372,2.57012,7.00709,1.95426,10.69274.99551a5.367,5.367,0,0,1,2.78922-.04245,115.70363,115.70363,0,0,0,33.313-97.33343C670.507,234.83778,614.24868,190.15246,552.876,197.97716Z" transform="translate(0 0)"/><circle class="cls-3" cx="327.59616" cy="226.29184" r="109.75108"/><path class="cls-3" d="M260.6352,332.60122s35.221,31.381,102.58014,18.41131c0,0,55.17583,20.35137,11.40662,89.46726s-63.21829,217.28912-37.39961,247.956c0,0-150.50687-7.244-160.72472-190.9284C176.49763,497.50741,173.50363,336.55165,260.6352,332.60122Z" transform="translate(0 0)"/><path class="cls-3" d="M177.55995,381.25529s16.66889-45.39508,43.06713-53.14248c20.56371-1.67825-49.89576-72.93355-8.00141-157.271,0,0-30.44406-75.538-68.31879,62.11638C144.30688,232.95819,123.43394,321.88194,177.55995,381.25529Z" transform="translate(0 0)"/><path class="cls-4" d="M481.22574,374.16957c-1.56248.45355-2.63251.70821-2.40949.44483,1.03987-1.228,4.91417-53.938,4.91417-53.938s-56.63206-9.62707-63.52674-5.41106C418.5428,316.28093,383.625,334.9,402.078,370.1574c0,0,51.29079,17.56037,77.01316,6.61286.665-.28307,1.28635-.54868,1.88223-.80427C481.03652,375.365,481.12875,374.76708,481.22574,374.16957Z" transform="translate(0 0)"/></g><g id="Calque_5" data-name="Calque 5"><rect class="cls-2" x="187.9711" y="143.23039" width="51.6156" height="116.27343" rx="12" transform="translate(39.68883 -35.15515) rotate(10.3579)"/><rect class="cls-2" x="415.38179" y="191.32437" width="51.6156" height="116.27343" rx="12" transform="translate(52.04187 -75.25901) rotate(10.3579)"/><path class="cls-2" d="M220.58165,254.72409s9.23223,27.30438,42.29521,37.46327c0,0,2.64079-6.49514-2.5323-9.12191s-23.48059-8.03219-31.50614-30.88169C225.25683,241.98664,220.58165,254.72409,220.58165,254.72409Z" transform="translate(0 0)"/></g><g id="Calque_4" data-name="Calque 4"><circle class="cls-5" cx="267.74685" cy="210.09649" r="57.32049"/><circle class="cls-5" cx="391.28943" cy="238.10629" r="57.32049"/><line class="cls-6" x1="319.25686" y1="221.71526" x2="335.14159" y2="225.32984"/></g><g id="Calque_6" data-name="Calque 6"><circle class="cls-2" cx="563.00004" cy="319.73317" r="102.68788"/><path class="cls-2" d="M461.69865,391.24542s46.28541,40.10734,99.28389,51.97279c0,0,61.08512,28.72124-74.5261,121.51048,0,0-106.45846,51.3049-129.906,118.71217,0,0-29.577-47.942,17.02116-185.08533S461.69865,391.24542,461.69865,391.24542Z" transform="translate(0 0)"/><path class="cls-3" d="M556.23057,427.18458c.89323-.717,35.557-10.37568,43.36293-15.02237s27.24039,79.05016-79.21028,71.80871C520.38322,483.97092,492.96281,477.97307,556.23057,427.18458Z" transform="translate(0 0)"/><path class="cls-2" d="M585.58374,486.20089s-20.31289,34.23138-38.6563,46.2786c-11.16493,12.99278,50.95593,55.4,23.20664,131.36337,0,0,29.51787,65.18639,50.407-57.52029C620.54111,606.32257,632.94154,536.17106,585.58374,486.20089Z" transform="translate(0 0)"/></g><g id="Calque_8" data-name="Calque 8"><path class="cls-3" d="M635.79048,406.47437l18.35593,8.3528a12.09992,12.09992,0,0,0,16.14874-6.40005l30.22158-71.19293a12.87249,12.87249,0,0,0-6.36595-16.64527l-18.35593-8.35279a12.0999,12.0999,0,0,0-16.14874,6.4l-30.22158,71.19294A12.87248,12.87248,0,0,0,635.79048,406.47437Z" transform="translate(0 0)"/><path class="cls-3" d="M437.01384,318.9619l18.35593,8.35279a12.09991,12.09991,0,0,0,16.14875-6.4l30.22158-71.19294a12.87248,12.87248,0,0,0-6.36595-16.64526l-18.35593-8.3528a12.09993,12.09993,0,0,0-16.14875,6.40005l-30.22158,71.19293A12.87249,12.87249,0,0,0,437.01384,318.9619Z" transform="translate(0 0)"/><path class="cls-3" d="M462.82359,329.75073s4.40862,24.64128,31.75632,36.98566c0,0,3.14817-5.34308-.99386-8.173s-19.31388-9.4749-23.26317-30.12793C468.56041,319.21854,462.82359,329.75073,462.82359,329.75073Z" transform="translate(0 0)"/></g><g id="Calque_7" data-name="Calque 7"><circle class="cls-5" cx="510.09295" cy="290.03272" r="57.32049"/><circle class="cls-5" cx="622.41735" cy="348.60361" r="57.32049"/><line class="cls-6" x1="556.94085" y1="314.39565" x2="571.37982" y2="321.93923"/></g></svg>